<svg xmlns="http://www.w3.org/2000/svg" width="20" height="20"><path fill-rule="evenodd" clip-rule="evenodd" fill="#4a90e2" d="M12.09 19.714c-.547.012-.878-.283-1.03-.873-.655-2.54-1.315-5.08-1.945-7.627-.093-.377-.258-.528-.627-.62-2.53-.63-5.05-1.292-7.577-1.93-.486-.12-.86-.34-.906-.874-.046-.567.307-.84.8-1.028C6.63 4.552 12.453 2.334 18.277.115c.426-.162.82-.19 1.165.156.343.348.31.744.147 1.168a15401.07 15401.07 0 00-6.664 17.526c-.163.43-.425.715-.835.75zm5.04-17.038c-.037-.032-.077-.062-.116-.092L4.038 7.514c.24.082.342.12.446.148 1.75.447 3.495.9 5.25 1.33.538.132.857.422.98.967.174.763.376 1.52.57 2.28.282 1.108.57 2.214.894 3.476l4.953-13.04z"/></svg>